<?xml version="1.0" encoding="utf-8"?>
<!-- Generator: Adobe Illustrator 19.0.0, SVG Export Plug-In . SVG Version: 6.00 Build 0)  -->
<svg version="1.1" id="Layer_1" xmlns="http://www.w3.org/2000/svg" xmlns:xlink="http://www.w3.org/1999/xlink" x="0px" y="0px"
	 viewBox="0 0 460 460" style="enable-background:new 0 0 460 460;" xml:space="preserve">
<style type="text/css">
	.st0{fill:#FFFFFF;}
</style>
<g id="XMLID_1_">
	<path id="XMLID_37_" d="M33.4,229.1c0-35.3-0.2-70.5,0.3-105.7c0.1-3.8,2.9-9.3,6.1-11.2C101.7,75.9,163.9,40,226.3,4.4
		c3.1-1.8,8.9-1.8,12-0.1C300.6,40,362.8,75.9,424.8,112.2c3.2,1.9,6.1,7.4,6.1,11.2c0.4,71.2,0.4,142.3,0,213.5
		c0,4.1-3.4,9.8-6.9,11.9c-61.4,35.9-123,71.5-184.8,106.7c-3.6,2-10.3,2.1-13.8,0.1c-61.8-35.2-123.3-71-185-106.4
		c-5.7-3.3-7.2-7-7.2-13.2C33.5,300.3,33.4,264.7,33.4,229.1z M396.7,229.9c0-28.7,0.2-57.3-0.3-86c-0.1-4-2.5-9.7-5.6-11.6
		c-50.6-29.7-101.4-59.1-152.4-88.1c-3.1-1.8-8.9-1.9-11.9-0.2c-51,29-101.8,58.3-152.5,88c-3,1.8-5.9,6.9-5.9,10.4
		c-0.4,58.4-0.4,116.8,0,175.2c0,3.8,3.2,9.2,6.5,11.1c49.7,29.2,99.8,57.8,149.5,86.9c5.8,3.4,9.9,3.6,15.9,0.1
		c50.1-29.3,100.5-58,150.5-87.3c3.2-1.9,5.8-7.5,5.9-11.4C396.9,287.9,396.7,258.9,396.7,229.9z"/>
	<path id="XMLID_36_" d="M295.8,454.9c0.7,0.2,1.4,0.5,2.1,0.7c-0.7,0.1-1.5,0.1-2.2,0.2C295.7,455.5,295.8,455.2,295.8,454.9z"/>
	<path id="XMLID_33_" class="st0" d="M396.7,229.9c0,29,0.2,58-0.3,87c-0.1,3.9-2.7,9.6-5.9,11.4c-50,29.3-100.4,58.1-150.5,87.3
		c-5.9,3.5-10.1,3.3-15.9-0.1c-49.8-29.1-99.8-57.7-149.5-86.9c-3.3-1.9-6.4-7.3-6.5-11.1c-0.4-58.4-0.4-116.8,0-175.2
		c0-3.6,2.9-8.6,5.9-10.4c50.6-29.6,101.5-59,152.5-88c3-1.7,8.8-1.6,11.9,0.2c51,29,101.8,58.4,152.4,88.1
		c3.1,1.8,5.5,7.6,5.6,11.6C396.9,172.5,396.7,201.2,396.7,229.9z M283.7,317.5c0-58.8,0-116,0-174.6c16.1,9.3,31.1,17.6,45.7,26.7
		c2.4,1.5,4,6,4.2,9.3c0.6,8.1,0.2,16.3,0.2,24.3c17.5,0,33.6,0,50.3,0c0-18-0.3-35.3,0.2-52.5c0.2-6.4-2.1-9.8-7.6-12.9
		c-40.5-23.1-80.8-46.5-121.2-69.8c-7.3-4.2-14.6-8.2-23.4-13.2c0,51.1,0,100.1,0,149.6c-17.4,0-34.1,0-52.1,0c0-20.1,0-39.4,0-60.2
		c-15.7,9-29.8,16.8-43.6,25.3c-2.3,1.4-4.4,5.3-4.4,8.1c-0.3,35.2-0.2,70.4-0.1,105.6c0,2.2,0.6,5.5,2.1,6.4
		c14.9,8.9,30.1,17.5,47.2,27.3c0-21.9,0-41.4,0-60.8c17.6,0,34.1,0,51.6,0c0,49.7,0,98.8,0,147.9c1.8,0,2.6,0.2,3.1,0
		c47.9-27.6,95.7-55.2,143.5-82.9c2.1-1.2,4.6-3.9,4.6-5.9c0.4-19.5,0.2-39.1,0.2-58.5c-17.7,0-33.7,0-50.3,0c0,9,0.3,17.2-0.2,25.4
		c-0.2,3-1.4,7.3-3.6,8.7C315.2,299.6,299.9,308.2,283.7,317.5z"/>
	<path id="XMLID_32_" d="M283.7,317.5c16.2-9.3,31.5-17.8,46.4-27c2.2-1.3,3.4-5.6,3.6-8.7c0.5-8.2,0.2-16.4,0.2-25.4
		c16.5,0,32.6,0,50.3,0c0,19.5,0.1,39-0.2,58.5c0,2-2.6,4.7-4.6,5.9c-47.8,27.7-95.6,55.3-143.5,82.9c-0.5,0.3-1.3,0-3.1,0
		c0-49.1,0-98.2,0-147.9c-17.6,0-34,0-51.6,0c0,19.4,0,38.9,0,60.8c-17-9.8-32.2-18.3-47.2-27.3c-1.5-0.9-2.1-4.2-2.1-6.4
		c-0.1-35.2-0.2-70.4,0.1-105.6c0-2.8,2.1-6.7,4.4-8.1c13.8-8.4,28-16.3,43.6-25.3c0,20.8,0,40.1,0,60.2c18,0,34.7,0,52.1,0
		c0-49.5,0-98.5,0-149.6c8.8,4.9,16.1,9,23.4,13.2c40.4,23.3,80.7,46.7,121.2,69.8c5.5,3.1,7.7,6.5,7.6,12.9
		c-0.5,17.2-0.2,34.5-0.2,52.5c-16.7,0-32.7,0-50.3,0c0-8,0.4-16.2-0.2-24.3c-0.2-3.2-1.8-7.8-4.2-9.3
		c-14.6-9.1-29.6-17.4-45.7-26.7C283.7,201.5,283.7,258.7,283.7,317.5z"/>
</g>
</svg>
